<svg width="166" height="123" viewBox="0 0 166 123" fill="none" xmlns="http://www.w3.org/2000/svg">
<path d="M165.004 109.664C165.351 108.92 165.052 107.968 164.336 107.538L152.664 100.528C151.948 100.098 151.086 100.353 150.739 101.097C150.391 101.842 150.69 102.794 151.407 103.224L161.782 109.454L156.751 120.235C156.403 120.98 156.702 121.932 157.419 122.362C158.135 122.792 158.997 122.537 159.344 121.793L165.004 109.664ZM2.81418 1.19133C2.57169 0.355738 1.76049 -0.157991 1.00233 0.0438837C0.244163 0.245758 -0.173869 1.08679 0.068628 1.92238L2.81418 1.19133ZM1.44141 1.55685C0.068628 1.92238 0.0686463 1.92244 0.0686659 1.92251C0.0686739 1.92254 0.0686946 1.92261 0.0687108 1.92267C0.0687431 1.92278 0.06878 1.9229 0.0688216 1.92305C0.0689047 1.92333 0.0690065 1.92368 0.069127 1.9241C0.0693679 1.92493 0.0696834 1.92601 0.0700735 1.92735C0.0708537 1.93003 0.0719327 1.93372 0.073311 1.93843C0.0760676 1.94785 0.0800218 1.96132 0.0851794 1.97879C0.0954947 2.01374 0.110624 2.0647 0.130614 2.13127C0.170593 2.26442 0.230017 2.46004 0.309257 2.71497C0.467735 3.22483 0.705504 3.97201 1.02555 4.93125L3.72988 4.068C3.41782 3.13268 3.18743 2.40848 3.03578 1.92059C2.95996 1.67665 2.90383 1.49181 2.86702 1.36921C2.84861 1.30791 2.83503 1.26218 2.82624 1.2324C2.82185 1.21751 2.81865 1.20661 2.81664 1.19975C2.81564 1.19632 2.81493 1.1939 2.81452 1.19249C2.81432 1.19179 2.81419 1.19134 2.81413 1.19115C2.8141 1.19105 2.81409 1.19102 2.8141 1.19105C2.81411 1.19106 2.81412 1.19109 2.81413 1.19114C2.81414 1.19116 2.81415 1.19121 2.81415 1.19122C2.81417 1.19127 2.81418 1.19133 1.44141 1.55685ZM3.17919 10.9896C3.83958 12.7495 4.60969 14.7264 5.49377 16.8845L8.11667 15.8019C7.24654 13.6778 6.48912 11.7334 5.84029 10.0043L3.17919 10.9896ZM8.00031 22.7641C8.82213 24.6194 9.71198 26.562 10.6717 28.5761L13.2154 27.3145C12.2702 25.3308 11.3938 23.4177 10.5845 21.5906L8.00031 22.7641ZM13.4954 34.2966C14.4334 36.132 15.4245 38.0098 16.4699 39.9201L18.9244 38.4841C17.8954 36.6038 16.9197 34.7551 15.9961 32.9479L13.4954 34.2966ZM19.6001 45.4481C20.6499 47.2401 21.7459 49.0513 22.8892 50.874L25.2391 49.2596C24.1151 47.4677 23.0372 45.6865 22.0046 43.9237L19.6001 45.4481ZM26.3425 56.192C27.5068 57.9237 28.7138 59.6592 29.9645 61.392L32.1892 59.5918C30.9617 57.891 29.7764 56.1869 28.6327 54.4857L26.3425 56.192ZM33.7588 66.4616C35.041 68.1129 36.364 69.7562 37.7286 71.3857L39.8026 69.3917C38.4658 67.7954 37.169 66.1847 35.9117 64.5654L33.7588 66.4616ZM41.8765 76.1482C43.2768 77.6934 44.7168 79.2205 46.197 80.7244L48.0898 78.5307C46.6427 77.0606 45.2343 75.567 43.8639 74.0548L41.8765 76.1482ZM50.686 85.0928C52.203 86.5057 53.7588 87.8917 55.3538 89.2462L57.0316 86.8528C55.4756 85.5315 53.9572 84.1786 52.4757 82.7989L50.686 85.0928ZM60.1975 93.1644C61.8314 94.4217 63.5034 95.6444 65.2138 96.828L66.6409 94.242C64.9755 93.0895 63.3468 91.8985 61.7544 90.6732L60.1975 93.1644ZM70.3679 100.199C72.0981 101.267 73.8649 102.294 75.6687 103.276L76.8137 100.516C75.0596 99.5614 73.3411 98.5625 71.6575 97.5237L70.3679 100.199ZM81.1115 106.046C82.9328 106.909 84.7893 107.726 86.6813 108.494L87.5196 105.589C85.6806 104.843 83.8761 104.048 82.1055 103.209L81.1115 106.046ZM92.3096 110.591C94.1851 111.229 96.0932 111.818 98.0343 112.355L98.5566 109.342C96.6689 108.82 94.8137 108.247 92.9906 107.627L92.3096 110.591ZM103.854 113.784C105.753 114.193 107.683 114.553 109.642 114.86L109.852 111.78C107.944 111.481 106.066 111.131 104.217 110.733L103.854 113.784ZM115.485 115.61C117.417 115.804 119.377 115.948 121.365 116.039L121.278 112.929C119.339 112.84 117.428 112.7 115.544 112.511L115.485 115.61ZM127.156 116.154C129.082 116.143 131.032 116.084 133.007 115.974L132.651 112.865C130.719 112.973 128.813 113.031 126.932 113.041L127.156 116.154ZM138.747 115.516C140.64 115.321 142.555 115.079 144.493 114.79L143.897 111.706C141.998 111.989 140.122 112.226 138.268 112.417L138.747 115.516ZM150.167 113.819C152.021 113.462 153.895 113.061 155.788 112.616L154.983 109.572C153.123 110.009 151.283 110.402 149.463 110.754L150.167 113.819ZM161.354 111.195C162.291 110.937 163.233 110.669 164.18 110.389L163.235 107.382C162.304 107.657 161.377 107.921 160.455 108.175L161.354 111.195Z" fill="url(#paint0_linear_784_72789)"/>
<defs>
<linearGradient id="paint0_linear_784_72789" x1="141.926" y1="102.926" x2="-14.6226" y2="44.8833" gradientUnits="userSpaceOnUse">
<stop stop-color="#BFF0FF"/>
<stop offset="1" stop-color="#82B4FF"/>
</linearGradient>
</defs>
</svg>
